<svg xmlns="http://www.w3.org/2000/svg" viewBox="0 0 100 100" role="img" aria-label="Sophia">
  <rect width="100" height="100" rx="22" fill="#000000"/>
  <g transform="translate(18,8) scale(0.80)">
    <path fill="#FC84B4" d="M39.14 4.34 L42.24 4.69 L43.44 5.38 L45.00 6.93 L45.86 9.00 L45.86 16.06 L47.41 17.78 L52.75 19.16 L56.36 20.54 L60.33 22.60 L63.43 24.67 L68.42 29.32 L71.00 32.77 L73.07 36.56 L74.45 40.17 L75.48 44.82 L75.66 51.37 L75.31 53.61 L74.11 57.91 L72.21 62.05 L68.94 66.87 L67.04 68.94 L61.70 73.59 L57.05 76.34 L54.99 76.34 L53.61 75.66 L52.23 73.76 L52.06 71.52 L52.57 70.14 L53.95 68.77 L57.05 66.70 L59.64 64.11 L62.56 59.81 L64.46 54.47 L64.98 50.68 L64.98 47.92 L64.63 44.82 L63.60 41.03 L61.88 37.24 L60.33 34.83 L56.71 30.87 L55.16 29.67 L52.75 28.11 L48.96 26.56 L47.58 26.56 L46.72 26.91 L45.68 27.77 L45.17 28.80 L45.00 69.11 L45.68 88.57 L44.82 90.81 L43.62 92.19 L42.24 93.05 L40.34 93.57 L38.28 93.40 L36.21 92.36 L34.83 90.99 L33.97 89.09 L33.97 82.20 L33.28 80.82 L32.08 79.96 L26.74 78.58 L22.78 77.03 L16.57 73.42 L13.82 71.18 L10.72 67.90 L8.82 65.32 L6.76 61.53 L5.55 58.26 L4.69 54.64 L4.34 48.27 L4.86 43.96 L5.55 41.21 L7.27 36.73 L10.37 31.56 L14.85 26.56 L18.30 23.81 L21.05 22.09 L22.43 21.40 L24.33 21.22 L25.88 21.91 L27.08 23.12 L27.77 25.01 L27.60 26.74 L26.39 28.63 L24.15 30.01 L20.36 33.45 L18.47 35.87 L17.09 38.28 L15.71 41.72 L15.02 44.82 L14.85 51.02 L15.20 53.44 L16.57 57.91 L18.12 61.01 L19.85 63.60 L22.95 66.87 L26.56 69.45 L31.04 71.35 L32.59 71.18 L34.14 69.97 L34.66 68.77 L34.83 32.94 L34.49 17.78 L33.97 9.86 L34.49 7.96 L35.52 6.24 L37.07 5.03 L38.97 4.52 Z"/>
  </g>
</svg>
